<svg xmlns="http://www.w3.org/2000/svg" viewBox="0 0 491.52 137.72"><defs><style>.cls-1{fill:#231815;}</style></defs><title>アセット 1</title><g id="レイヤー_2" data-name="レイヤー 2"><g id="レイヤー_1-2" data-name="レイヤー 1"><path class="cls-1" d="M4.82,5h25q-2.49,19.29-3.66,33.77t-1.33,29.6q.33,16,1.75,30.77T31.1,133.4H5.32q-2.66-18.63-3.91-33.27T0,68.86Q.17,53.23,1.33,38.67T4.82,5ZM42.08,71.36H65.2a71.61,71.61,0,0,0-4.66,10.47,34.15,34.15,0,0,0-1.66,9.65,12.3,12.3,0,0,0,1.17,6q1.32,2.84,5.4,4.66t12.06,2a194.44,194.44,0,0,0,21.62-.91,68.84,68.84,0,0,0,7.65-1.08v26.44a93.65,93.65,0,0,1-12.22,1.33q-6.74.33-18.71.5-19.47-.5-29.61-9.56A30.44,30.44,0,0,1,35.6,98.47a48.12,48.12,0,0,1,1.33-14.56A59.56,59.56,0,0,1,42.08,71.36Zm-1.5-59h63.21V37.76H40.58Z"/><path class="cls-1" d="M261.55,5.82h78.51V29.11L310.45,50.9q15.14-3,25,1.58a33.33,33.33,0,0,1,15.38,14.38q5.49,9.83,5.82,23,.17,14.13-6.56,24.7a42.75,42.75,0,0,1-17.47,15.8,69,69,0,0,1-23,6.57,61.66,61.66,0,0,1-23.87-2q-9.82-2.82-15-9.14t-5.41-16.14a30.65,30.65,0,0,1,2.91-13.14,21.4,21.4,0,0,1,10.23-10.64Q285.68,82.17,298,84q10.81,2,17.3,8.15a44.34,44.34,0,0,1,10.31,15.3,20.8,20.8,0,0,0,5.16-8.15,28,28,0,0,0,1.33-9.81q0-8.65-5.91-13.39T306.8,71.69q-13.14.5-21.71,4.57a69.93,69.93,0,0,0-15.55,10.06l-19.63,16.31V71l51.9-39.25H261.55Zm31.94,94.48q-4.83-.17-6.65,3a7.19,7.19,0,0,0-.17,6.9q1.66,3.75,7.32,5.58a27.92,27.92,0,0,0,10.06,1,28.36,28.36,0,0,0,4.41-.66,18.55,18.55,0,0,0-5.24-10.4A17.06,17.06,0,0,0,293.49,100.3Z"/><path class="cls-1" d="M403.37,63.94h21.22q-7,5.58-12.15,9.7L401.87,82q-5.37,4.24-9.28,7.52c-2.61,2.17-4.22,3.61-4.85,4.29a2.53,2.53,0,0,0-.86,2A3.89,3.89,0,0,0,388,98.3q1,1,4.94,4.68t9.24,8.55l10.52,9.67q5.21,4.76,12.16,11H404.92l-9-8-7.95-7q-4.08-3.61-7.34-6.57a48.57,48.57,0,0,1-4.47-4.43A14.16,14.16,0,0,1,372,96a13.46,13.46,0,0,1,4.08-9.49q1.38-1.29,4.51-3.91t7-5.8q3.87-3.18,7.44-6.14T403.37,63.94Z"/><path class="cls-1" d="M450.54,63.51h14.52q-2.49,7-4.51,13.1t-4.43,14q.44-.77,4.3-2.4a9.87,9.87,0,0,1,7.95.08,8.25,8.25,0,0,1,5,6.58,43,43,0,0,1,.64,10,53.25,53.25,0,0,0,.17,8.63q.43,3.74,2.41,4a6.72,6.72,0,0,0,4-2q2.31-2,4.85-4.6t4.25-4.64a23,23,0,0,1,1.81-2V122.7a39.2,39.2,0,0,1-4.68,5.5,23.38,23.38,0,0,1-5.37,3.73,14.67,14.67,0,0,1-6.79,1.59q-7.65-.42-10.44-6.35t-2.36-15.64a35.32,35.32,0,0,0-.13-7.77c-.32-1.92-1.62-2.6-3.91-2A8,8,0,0,0,454,104.4a14.73,14.73,0,0,0-2.71,4.72q-.94,2.67-1.72,5.16-1.11,4.47-2.27,9.15t-2.19,9.06H431.55q2.83-12,5.41-22t6-22.12Q446.42,76.22,450.54,63.51Z"/><path class="cls-1" d="M124.17,14.47q10.14.33,17.38.33h16.38q-1.5-7-2.49-10.81c-.67-2.55-1-3.88-1-4h26.44q.51,3.33,1.33,6.65c.56,2.22,1.11,4.49,1.67,6.82Q194,13,202.09,12.06t13.14-1.66c3.38-.5,5.13-.75,5.24-.75V33.27a245.51,245.51,0,0,1-30.94,3q.84,3.33,1.83,6.57t1.83,6.57q9.31-.82,18.13-1.66t14.31-1.5a35.18,35.18,0,0,0,5.49-.83V69.53c-5.77.88-11,1.58-15.56,2.07s-9.84,1-15.71,1.42q3.32,10.82,5.32,17.13a53.6,53.6,0,0,0,2.16,6.32H179.89q-1.5-5.14-3.16-10.73t-3.16-11.22q-9.15.33-18,.5t-16.8.16H120.67V51.4q14.8-.16,25-.34t21.37-.5c-.56-2.32-1.14-4.57-1.75-6.73s-1.14-4.3-1.58-6.41q-10.81.34-19.38.42t-14.3,0l-5.9-.08Zm11.47,70.86h26.45a66.33,66.33,0,0,0-5.24,8.9,15,15,0,0,0-1.58,7.06,9.22,9.22,0,0,0,1.33,5.08q1.34,2.09,5.32,3.24t14,1.5q11.64,0,21.46-.83t22.12-2.66v27.61q-3.33.17-13.55,1.24t-31,1.25q-22.12-.16-33.77-8.81t-11.64-23.79a34.87,34.87,0,0,1,1.66-10.23A54.32,54.32,0,0,1,135.64,85.33Z"/><polygon class="cls-1" points="233.06 23.92 244.98 23.92 238.85 0 226.94 0 233.06 23.92"/><polygon class="cls-1" points="217.9 23.92 229.82 23.92 223.69 0 211.78 0 217.9 23.92"/></g></g></svg>