<svg xmlns="http://www.w3.org/2000/svg" viewBox="0 0 70.9 60.25"><defs><style>.cls-1{fill:#fff;}</style></defs><title>record</title><g id="レイヤー_2" data-name="レイヤー 2"><g id="Record"><g id="メモアイコン"><path id="パス_2049" data-name="パス 2049" class="cls-1" d="M2.46,19.79H8.64a2.46,2.46,0,0,0,0-4.92H2.46a2.46,2.46,0,0,0,0,4.92Z"/><rect id="長方形_605" data-name="長方形 605" class="cls-1" x="3.04" y="22.37" width="4.61" height="15.52"/><path id="パス_2050" data-name="パス 2050" class="cls-1" d="M11.1,42.94a2.46,2.46,0,0,0-2.46-2.46H2.46a2.46,2.46,0,0,0,0,4.92H8.64a2.46,2.46,0,0,0,2.46-2.46Z"/><rect id="長方形_606" data-name="長方形 606" class="cls-1" x="18.59" y="16.07" width="20.72" height="3.45"/><rect id="長方形_607" data-name="長方形 607" class="cls-1" x="18.59" y="28.74" width="20.72" height="3.45"/><rect id="長方形_608" data-name="長方形 608" class="cls-1" x="18.59" y="41.4" width="12.66" height="3.45"/><path id="パス_2051" data-name="パス 2051" class="cls-1" d="M7.65,5.57a1,1,0,0,1,1-1H43.72a4.22,4.22,0,0,1,4.22,4.22v8.25a55.91,55.91,0,0,1,4.59-6V8.83A8.83,8.83,0,0,0,43.7,0H8.61A5.57,5.57,0,0,0,3,5.57v6.72h4.6V5.57Z"/><path id="パス_2052" data-name="パス 2052" class="cls-1" d="M47.94,38.12V51.43a4.22,4.22,0,0,1-4.22,4.22H8.61a1,1,0,0,1-1-1V48H3.06v6.73a5.56,5.56,0,0,0,5.56,5.56h35.1a8.83,8.83,0,0,0,8.83-8.82V35.62a10,10,0,0,1-4.09,1.48Z"/><path id="パス_2053" data-name="パス 2053" class="cls-1" d="M63.42,7.9C53.16,9.31,42.45,34.12,37.6,43c-1.22,2.24,1.61,4.11,2.87,2,.9-1.54,5.81-11.23,5.81-11.23,5.35.17,7.33-3.56,5.19-5.88,7.19.15,10.75-3.81,8.71-6.21A8.12,8.12,0,0,0,67,20.39C72.82,17.18,72.56,6.43,63.42,7.9Z"/></g></g></g></svg>